PathFileType	4	(X/Y/Z)	joints.trc
DataRate	CameraRate	NumFrames	NumMarkers	Units	OrigDataRate	OrigDataStartFrame	OrigNumFrames
30.0	30.0	18	17	m	30.0	91	120
Frame#	Time	smpl_pelvis			l_smpl_hip			r_smpl_hip			smpl_spine			l_smpl_knee			r_smpl_knee			l_smpl_ankle			r_smpl_ankle			l_smpl_mtp			r_smpl_mtp			smpl_head			l_smpl_shoulder			r_smpl_shoulder			l_smpl_elbow			r_smpl_elbow			l_smpl_hand			r_smpl_hand		
		X1	Y1	Z1	X2	Y2	Z2	X3	Y3	Z3	X4	Y4	Z4	X5	Y5	Z5	X6	Y6	Z6	X7	Y7	Z7	X8	Y8	Z8	X9	Y9	Z9	X10	Y10	Z10	X11	Y11	Z11	X12	Y12	Z12	X13	Y13	Z13	X14	Y14	Z14	X15	Y15	Z15	X16	Y16	Z16	X17	Y17	Z17
91	3.000000	0.051934	0.840340	-0.076069	0.111166	0.756868	-0.082604	-0.011932	0.752088	-0.085269	0.056853	0.970324	-0.101897	0.203798	0.420048	0.102795	-0.076224	0.418782	0.107640	0.251162	0.065420	-0.151557	-0.124701	0.069641	-0.136781	0.313199	0.020476	-0.031756	-0.175069	0.018774	-0.004291	0.043733	1.452238	0.063155	0.252142	1.247417	-0.004875	-0.145797	1.262903	0.014788	0.286080	0.995094	-0.050972	-0.186041	1.004177	-0.025839	0.321855	0.751123	0.043798	-0.208277	0.754583	0.072701
92	3.033333	0.051025	0.801397	-0.075609	0.110233	0.717699	-0.082390	-0.012773	0.713038	-0.083422	0.056230	0.930902	-0.102951	0.203436	0.395232	0.133139	-0.073207	0.394514	0.141186	0.256792	0.064781	-0.154666	-0.127511	0.070375	-0.137073	0.318099	0.017958	-0.034929	-0.178452	0.017805	-0.006367	0.045233	1.407272	0.082608	0.251987	1.202896	0.004086	-0.146016	1.218836	0.029138	0.286605	0.951706	-0.056612	-0.186824	0.962602	-0.029913	0.335412	0.704441	0.021751	-0.223035	0.707707	0.052066
93	3.066667	0.050694	0.784534	-0.066993	0.109170	0.700266	-0.075332	-0.013465	0.696217	-0.075248	0.056370	0.914618	-0.092952	0.203778	0.378203	0.139650	-0.072701	0.380857	0.152473	0.262471	0.058110	-0.158902	-0.132015	0.071047	-0.142441	0.325447	0.011163	-0.038611	-0.184608	0.016695	-0.012840	0.046472	1.392061	0.097606	0.254154	1.191512	0.011131	-0.145677	1.206044	0.040489	0.295128	0.945674	-0.070365	-0.194571	0.958290	-0.041645	0.365580	0.698458	-0.021402	-0.253568	0.700916	0.014900
94	3.100000	0.050889	0.810601	-0.049631	0.108669	0.726170	-0.059942	-0.013340	0.722340	-0.060494	0.057290	0.942230	-0.070131	0.202707	0.391755	0.120828	-0.074209	0.393676	0.138028	0.264923	0.062773	-0.161518	-0.136177	0.071591	-0.138888	0.333751	0.008729	-0.044914	-0.192476	0.014109	-0.011374	0.044767	1.424905	0.109506	0.255183	1.234985	0.020047	-0.146472	1.246189	0.051121	0.309623	1.000636	-0.086882	-0.209989	1.012004	-0.060213	0.404661	0.757025	-0.076714	-0.295954	0.756563	-0.034375
95	3.133333	0.050729	0.894750	-0.025977	0.106970	0.809795	-0.038456	-0.012181	0.806583	-0.039754	0.057424	1.026880	-0.042943	0.212759	0.451489	0.074589	-0.092523	0.452478	0.094894	0.275677	0.086943	-0.146114	-0.145219	0.093234	-0.120166	0.340038	0.011695	-0.036710	-0.196406	0.011701	-0.002037	0.043677	1.518922	0.113361	0.251213	1.343340	0.019367	-0.146246	1.351564	0.049337	0.319797	1.120949	-0.103957	-0.223399	1.135094	-0.084676	0.441197	0.882392	-0.125343	-0.339138	0.886629	-0.082967
96	3.166667	0.049831	1.035655	-0.001822	0.106995	0.951233	-0.017787	-0.014134	0.948234	-0.019820	0.055917	1.169128	-0.012424	0.218877	0.571100	0.005009	-0.113909	0.570423	0.029327	0.283373	0.155034	-0.090010	-0.162624	0.156618	-0.065278	0.329615	0.040804	-0.022013	-0.196262	0.031192	0.013574	0.037919	1.663777	0.106596	0.246220	1.498590	0.011683	-0.145715	1.505314	0.039058	0.323123	1.282845	-0.115166	-0.233639	1.288555	-0.097105	0.463889	1.053895	-0.148164	-0.376736	1.051869	-0.088517
97	3.200000	0.048860	1.168262	0.011464	0.104615	1.084671	-0.006519	-0.014010	1.081954	-0.011357	0.055764	1.302767	0.008807	0.208264	0.706551	-0.037572	-0.115808	0.708941	-0.015888	0.291226	0.273939	-0.046876	-0.176486	0.278613	-0.016781	0.346683	0.149907	-0.000174	-0.219970	0.146400	0.036863	0.034302	1.787751	0.106523	0.243019	1.636236	0.013963	-0.144137	1.639803	0.032679	0.333939	1.431439	-0.113318	-0.249833	1.431502	-0.099334	0.491104	1.216772	-0.154215	-0.416071	1.210142	-0.075296
98	3.233333	0.046227	1.262662	0.008757	0.102075	1.179390	-0.007758	-0.015867	1.176219	-0.013489	0.052952	1.396667	0.005082	0.207244	0.801586	-0.034062	-0.118372	0.804041	-0.010610	0.288132	0.376580	-0.067154	-0.178532	0.379310	-0.021629	0.349453	0.255096	-0.026917	-0.228580	0.249198	0.025434	0.030930	1.880993	0.099888	0.241448	1.731295	0.010021	-0.147752	1.733009	0.023599	0.341884	1.528566	-0.113485	-0.263688	1.528217	-0.101996	0.505521	1.325291	-0.141905	-0.441958	1.325877	-0.061764
99	3.266667	0.043464	1.317441	0.004970	0.099504	1.234666	-0.010587	-0.018588	1.230982	-0.015185	0.049732	1.451273	-0.000419	0.204046	0.856828	-0.029215	-0.117806	0.859802	-0.007159	0.284311	0.435326	-0.072870	-0.177923	0.438022	-0.025053	0.348397	0.315241	-0.035843	-0.230678	0.310243	0.019331	0.026420	1.936141	0.091537	0.237003	1.787762	0.002086	-0.151471	1.788002	0.013137	0.344076	1.586162	-0.114203	-0.273482	1.585588	-0.103104	0.514714	1.391009	-0.116327	-0.459251	1.404872	-0.038909
100	3.300000	0.041231	1.334113	0.001619	0.098358	1.251709	-0.012212	-0.021139	1.247403	-0.017915	0.047083	1.467625	-0.006123	0.204446	0.875434	-0.024598	-0.118163	0.875612	-0.004284	0.285410	0.452539	-0.071418	-0.179945	0.455207	-0.023523	0.349526	0.333859	-0.031126	-0.232545	0.327903	0.024794	0.021210	1.952756	0.082170	0.233545	1.805345	-0.005147	-0.155432	1.805342	0.000695	0.345431	1.599729	-0.111634	-0.280085	1.602495	-0.109242	0.522953	1.409383	-0.086950	-0.473050	1.439869	-0.019315
101	3.333333	0.039418	1.330728	-0.000967	0.097489	1.248446	-0.013638	-0.022685	1.243485	-0.020029	0.044502	1.463876	-0.009869	0.208751	0.874390	-0.020027	-0.121134	0.869694	-0.003305	0.292877	0.448352	-0.066047	-0.186387	0.448630	-0.021675	0.356666	0.329449	-0.021398	-0.237313	0.322512	0.031774	0.015363	1.948798	0.072781	0.230244	1.802852	-0.012678	-0.159446	1.802915	-0.011726	0.346299	1.592436	-0.108680	-0.285941	1.598919	-0.118416	0.529898	1.405615	-0.060831	-0.487797	1.454195	-0.003883
102	3.366667	0.037802	1.290506	-0.002995	0.096481	1.207903	-0.014186	-0.024760	1.202574	-0.021518	0.041782	1.423215	-0.014021	0.214924	0.835416	-0.012637	-0.123108	0.826253	-0.006227	0.303283	0.407944	-0.060637	-0.188658	0.398263	-0.025372	0.366846	0.289165	-0.009589	-0.234481	0.275420	0.035867	0.011103	1.907478	0.063048	0.226773	1.761106	-0.018654	-0.163329	1.761987	-0.023138	0.342289	1.545599	-0.104056	-0.285934	1.554524	-0.126857	0.526771	1.360184	-0.035701	-0.490927	1.421603	0.010431
103	3.400000	0.036159	1.231787	-0.003765	0.094894	1.148942	-0.013398	-0.025984	1.143317	-0.021766	0.040371	1.364241	-0.015827	0.219643	0.776626	-0.002461	-0.126016	0.767065	-0.001752	0.311605	0.348430	-0.050355	-0.192096	0.337609	-0.027820	0.373447	0.230454	0.006919	-0.234908	0.214063	0.037235	0.006274	1.848817	0.053256	0.223197	1.701954	-0.024306	-0.167060	1.702601	-0.034424	0.337411	1.481464	-0.101952	-0.285943	1.490593	-0.137764	0.522553	1.300043	-0.010993	-0.493686	1.373842	0.025918
104	3.433333	0.034639	1.137909	-0.004143	0.093584	1.055085	-0.011881	-0.026859	1.049040	-0.020819	0.039677	1.269839	-0.019002	0.224405	0.682286	0.016487	-0.129216	0.672148	0.015509	0.319669	0.259838	-0.044359	-0.193940	0.252465	-0.039343	0.374902	0.141161	0.013202	-0.233801	0.123263	0.026427	-0.000375	1.755526	0.044027	0.219304	1.606805	-0.029225	-0.171356	1.606259	-0.045886	0.330920	1.380853	-0.102373	-0.282427	1.387179	-0.151687	0.513855	1.207674	0.010207	-0.488906	1.287382	0.038481
105	3.466667	0.033217	1.010680	-0.006555	0.093564	0.927456	-0.012032	-0.028871	0.921525	-0.021994	0.039081	1.141472	-0.026225	0.227635	0.563893	0.050427	-0.132279	0.555087	0.043694	0.323742	0.153638	-0.074398	-0.190435	0.151949	-0.085584	0.379147	0.038219	-0.009933	-0.236338	0.034083	-0.011849	-0.003646	1.629374	0.036744	0.215878	1.476863	-0.033208	-0.174753	1.473178	-0.057203	0.326426	1.246816	-0.104924	-0.276708	1.243145	-0.161249	0.501348	1.074179	0.017285	-0.472424	1.149575	0.042389
106	3.500000	0.031791	0.867654	-0.016948	0.093674	0.784351	-0.014394	-0.032001	0.778745	-0.025508	0.039108	0.996236	-0.048116	0.228089	0.433172	0.099570	-0.135412	0.428979	0.099049	0.303876	0.067629	-0.126987	-0.168583	0.072958	-0.137646	0.374280	0.012922	-0.016455	-0.232339	0.014023	-0.012749	-0.006448	1.486441	0.032308	0.214250	1.320344	-0.034201	-0.180023	1.315299	-0.065984	0.319260	1.087036	-0.099736	-0.263831	1.076479	-0.158016	0.480794	0.913301	0.027902	-0.423663	0.978996	0.047350
107	3.533333	0.030167	0.804162	-0.032391	0.092010	0.721008	-0.026367	-0.034759	0.714990	-0.036483	0.037676	0.929924	-0.071840	0.218591	0.390567	0.143331	-0.139331	0.385443	0.145222	0.281370	0.052640	-0.131759	-0.162613	0.062306	-0.134787	0.360616	0.012101	-0.016298	-0.230123	0.012946	-0.010354	-0.004235	1.422713	0.034670	0.216290	1.241067	-0.033925	-0.182808	1.238129	-0.062680	0.295297	1.000425	-0.099420	-0.234924	0.988197	-0.154299	0.432608	0.793081	-0.007813	-0.377990	0.831337	-0.002620
108	3.566667	0.028863	0.796113	-0.038153	0.091153	0.712842	-0.032547	-0.036404	0.706684	-0.041289	0.035529	0.921328	-0.079364	0.213433	0.384271	0.145069	-0.138374	0.380173	0.149135	0.272172	0.049865	-0.129247	-0.162033	0.060864	-0.134234	0.355170	0.011950	-0.013891	-0.228875	0.012813	-0.010062	-0.002475	1.413112	0.034646	0.217258	1.224660	-0.036039	-0.183593	1.223163	-0.057404	0.267792	0.982567	-0.109234	-0.203676	0.971081	-0.152282	0.369340	0.741591	-0.067880	-0.326532	0.743250	-0.077405
